<svg width="24" height="24" viewBox="0 0 24 24" fill="none" xmlns="http://www.w3.org/2000/svg">
<path d="M19.8778 11.3585C19.8778 14.5385 19.8778 17.7185 19.8778 20.8985C19.8778 22.3265 19.1518 23.2325 17.7538 23.5385C17.7418 23.5385 17.7298 23.5565 17.7178 23.5685C12.7078 23.5685 7.69783 23.5685 2.68783 23.5685C1.87183 23.5085 1.28383 23.0825 0.845832 22.4165C0.659832 22.1345 0.569832 21.8285 0.527832 21.4985C0.527832 16.4285 0.527832 11.3585 0.527832 6.28846C0.611832 6.19246 0.599832 6.07246 0.635832 5.95846C0.959832 4.94446 1.88983 4.22446 2.95783 4.21846C6.26383 4.21246 9.56983 4.21246 12.8818 4.21846C13.2838 4.21846 13.5778 4.51246 13.5778 4.89046C13.5778 5.28646 13.2718 5.56846 12.8398 5.56846C9.59983 5.56846 6.35983 5.56846 3.11983 5.56846C2.94583 5.56846 2.77783 5.58046 2.60983 5.64046C2.14783 5.81446 1.87783 6.22246 1.87783 6.74446C1.87783 8.65846 1.87783 10.5665 1.87783 12.4805C1.87783 15.3125 1.87783 18.1505 1.87783 20.9825C1.87783 21.7505 2.33983 22.2185 3.10183 22.2185C7.83583 22.2185 12.5638 22.2185 17.2978 22.2185C18.0658 22.2185 18.5278 21.7565 18.5278 20.9825C18.5278 17.7665 18.5278 14.5505 18.5278 11.3285C18.5278 11.2085 18.5218 11.0885 18.5638 10.9745C18.6718 10.6685 18.9718 10.4765 19.2838 10.5185C19.5958 10.5605 19.8478 10.8185 19.8718 11.1365C19.8778 11.2085 19.8778 11.2865 19.8778 11.3585ZM23.5678 3.09046C23.5678 3.27046 23.5678 3.45046 23.5678 3.63046C23.4538 4.10446 23.1478 4.45246 22.8058 4.78846C19.5598 8.02246 16.3198 11.2625 13.0858 14.5085C12.8818 14.7125 12.6658 14.8445 12.3778 14.8985C11.3938 15.0845 10.4098 15.2885 9.42583 15.4805C8.90383 15.5825 8.50783 15.1805 8.60983 14.6585C8.80783 13.6385 9.01183 12.6185 9.21583 11.5985C9.25183 11.4125 9.33583 11.2505 9.47383 11.1125C12.8398 7.75246 16.1998 4.39246 19.5598 1.02646C19.8058 0.780461 20.1058 0.648461 20.4178 0.522461C20.5978 0.522461 20.7778 0.522461 20.9578 0.522461C21.4078 0.540461 21.7318 0.786461 22.0318 1.09246C22.3618 1.42846 22.6918 1.76446 23.0278 2.09446C23.3098 2.37046 23.5318 2.68246 23.5678 3.09046ZM20.2738 5.15446C19.8358 4.73446 19.4038 4.30246 18.9838 3.86446C18.8458 3.72046 18.7738 3.71446 18.6238 3.85846C16.0198 6.47446 13.4098 9.07846 10.7998 11.6825C10.6078 11.8745 10.4758 12.0725 10.4338 12.3485C10.3558 12.8285 10.2478 13.3025 10.1578 13.7825C10.1458 13.8365 10.0678 13.9565 10.1758 13.9505C10.2658 13.9385 10.2958 13.9385 10.3258 13.9325C10.8658 13.8245 11.4118 13.7165 11.9518 13.6085C12.0538 13.5905 12.1438 13.5425 12.2218 13.4645C14.9038 10.7825 17.5858 8.09446 20.2678 5.41846C20.3758 5.31046 20.3878 5.25646 20.2738 5.15446ZM22.1038 3.16246C21.7078 2.77246 21.3178 2.38246 20.9278 1.98646C20.8678 1.92646 20.8138 1.86646 20.7178 1.87246C20.6338 1.87246 20.5798 1.91446 20.5258 1.96846C20.3038 2.19046 20.0818 2.41846 19.8598 2.63446C19.7818 2.70646 19.7818 2.75446 19.8598 2.82646C20.3278 3.28846 20.7958 3.75646 21.2578 4.22446C21.3298 4.29646 21.3718 4.31446 21.4498 4.23046C21.6658 4.00246 21.8938 3.78046 22.1158 3.56446C22.2538 3.42646 22.2418 3.30046 22.1038 3.16246Z" fill="#4C68EF"/>
</svg>
