<svg width="24" height="24" viewBox="0 0 24 24" fill="none" xmlns="http://www.w3.org/2000/svg">
<path d="M3.09312 11.9594C3.09312 14.094 3.08752 16.2285 3.09312 18.3688C3.09871 19.6863 3.92111 20.7622 5.14071 21.0729C5.33652 21.1247 5.53793 21.1477 5.74492 21.1477C7.53517 21.1477 9.32542 21.1477 11.1157 21.1477C11.5353 21.1477 11.8653 20.9118 11.9884 20.5378C12.1115 20.1696 11.9996 19.7554 11.6975 19.508C11.5073 19.3526 11.2891 19.3124 11.0485 19.3124C9.34779 19.3181 7.65265 19.3124 5.95192 19.3124C5.21344 19.3124 4.87218 18.9671 4.87218 18.2077C4.87218 14.0307 4.87218 9.85368 4.87218 5.67092C4.87218 4.92872 5.21344 4.57776 5.93514 4.57776C7.64706 4.57776 9.35898 4.57776 11.0765 4.57776C11.6136 4.57776 11.9996 4.2268 12.0332 3.732C12.0723 3.17967 11.6695 2.74816 11.1045 2.74816C9.31982 2.74241 7.54076 2.74816 5.75611 2.74816C5.48757 2.74816 5.23023 2.78844 4.97288 2.86898C3.84279 3.23721 3.09871 4.27283 3.09312 5.51557C3.08752 7.66161 3.09312 9.80765 3.09312 11.9594Z" fill="#EE6B6B"/>
<path d="M17.9468 12.8625C17.2419 13.5874 16.5761 14.2663 15.916 14.951C15.6642 15.2099 15.5523 15.5091 15.6474 15.8715C15.8153 16.5217 16.5538 16.7748 17.0629 16.3606C17.1244 16.3145 17.1803 16.257 17.2307 16.1995C18.3608 15.0373 19.4965 13.8693 20.6266 12.7071C21.1245 12.1951 21.1245 11.7003 20.6266 11.194C19.4797 10.0145 18.3328 8.83505 17.1859 7.65559C16.9566 7.41395 16.6824 7.28737 16.3524 7.35066C16.0111 7.41395 15.7705 7.62107 15.653 7.96052C15.5411 8.29998 15.6139 8.61066 15.8433 8.88108C15.8824 8.9271 15.9328 8.97313 15.9775 9.01916C16.5705 9.62903 17.1636 10.2389 17.7566 10.8488C17.8013 10.8948 17.8685 10.9293 17.8853 11.0271C17.8069 11.0271 17.7342 11.0271 17.6559 11.0271C14.3215 11.0271 10.9872 11.0271 7.65288 11.0271C7.13259 11.0271 6.79692 11.2745 6.69062 11.7405C6.56195 12.2756 6.94797 12.8164 7.48504 12.8567C7.57455 12.8625 7.66407 12.8625 7.75918 12.8625C11.0599 12.8625 14.3551 12.8625 17.6559 12.8625C17.7342 12.8625 17.8069 12.8625 17.9468 12.8625Z" fill="#EE6B6B"/>
</svg>
