<svg width="24" height="24" viewBox="0 0 24 24" fill="none" xmlns="http://www.w3.org/2000/svg">
<path fill-rule="evenodd" clip-rule="evenodd" d="M18.4884 8.52714V11.0538C18.4884 12.0559 18.8195 12.7295 19.5871 13.6047C19.6394 13.6643 19.6938 13.7253 19.7642 13.8035L19.9439 14.0028C20.0941 14.1701 20.1992 14.2913 20.2989 14.4144C20.7618 14.9864 21 15.495 21 16.107C21 18.1265 17.3406 19.2653 12 19.2653C6.6594 19.2653 3 18.1265 3 16.107C3 15.495 3.23823 14.9864 3.70114 14.4144C3.8008 14.2913 3.90591 14.1701 4.05609 14.0028L4.23577 13.8035C4.3062 13.7253 4.36057 13.6643 4.41289 13.6047C5.18053 12.7295 5.51163 12.0559 5.51163 11.0538V8.52714C5.51163 4.9223 8.41657 2 12 2C15.5834 2 18.4884 4.9223 18.4884 8.52714ZM9.60977 20.2339C10.3582 20.2895 11.1536 20.3181 12 20.3181C12.8464 20.3181 13.6418 20.2895 14.3902 20.2339C14.0627 21.2848 13.0948 22 12 22C10.9052 22 9.93725 21.2848 9.60977 20.2339Z" fill="white"/>
</svg>
