<svg width="24" height="24" viewBox="0 0 24 24" fill="none" xmlns="http://www.w3.org/2000/svg">
<path fill-rule="evenodd" clip-rule="evenodd" d="M12 2C13.2096 2 14.1992 2.94152 14.2765 4.13133L14.2813 4.2813L14.2811 4.93962L14.5196 5.02008C14.6643 5.07222 14.8071 5.12879 14.9479 5.1897L15.1576 5.28433L15.3783 5.39434L15.845 4.92908C16.6549 4.11921 17.9221 4.04558 18.8151 4.70821L18.9461 4.81312L19.0709 4.92908C19.9213 5.77945 19.9599 7.13396 19.1869 8.03016L19.0709 8.15497L18.6047 8.62075L18.7157 8.84239C18.7809 8.98118 18.8419 9.12203 18.8984 9.26479L18.9799 9.48036L19.0594 9.71792L19.7187 9.7187C20.876 9.7187 21.8315 10.5796 21.98 11.6962L21.9951 11.85L22 12C22 13.2096 21.0585 14.1992 19.8687 14.2765L19.7187 14.2813L19.0594 14.2811L18.9797 14.5204C18.9275 14.6652 18.8709 14.8081 18.81 14.949L18.7153 15.1587L18.6057 15.3792L19.0709 15.845C19.8808 16.6549 19.9544 17.9221 19.2918 18.8151L19.1869 18.9461L19.0709 19.0709C18.2205 19.9213 16.866 19.9599 15.9698 19.1869L15.845 19.0709L15.3783 18.6047L15.1576 18.7157C15.0188 18.7809 14.878 18.8419 14.7352 18.8984L14.5196 18.9799L14.2811 19.0594L14.2813 19.7187C14.2813 20.876 13.4204 21.8315 12.3038 21.98L12.15 21.9951L12 22C10.7904 22 9.80078 21.0585 9.72355 19.8687L9.7187 19.7187L9.71792 19.0594L9.47956 18.9797C9.33477 18.9275 9.19186 18.8709 9.05101 18.81L8.84129 18.7153L8.61981 18.6057L8.15497 19.0709C7.34509 19.8808 6.07795 19.9544 5.18493 19.2918L5.05389 19.1869L4.92908 19.0709C4.07871 18.2205 4.04006 16.866 4.81312 15.9698L4.92908 15.845L5.39434 15.3783L5.28433 15.1576C5.21908 15.0188 5.15815 14.878 5.1016 14.7352L5.02008 14.5196L4.93962 14.2811L4.2813 14.2813C3.12402 14.2813 2.16851 13.4204 2.02004 12.3038L2.00485 12.15L2 12C2 10.7904 2.94152 9.80078 4.13133 9.72355L4.2813 9.7187L4.93962 9.71792L5.02008 9.48036C5.07222 9.33572 5.12879 9.19291 5.1897 9.0521L5.28433 8.84239L5.39434 8.62075L4.92908 8.15497C4.11921 7.34509 4.04558 6.07795 4.70821 5.18493L4.81312 5.05389L4.92908 4.92908C5.77945 4.07871 7.13396 4.04006 8.03016 4.81312L8.15497 4.92908L8.62075 5.39434L8.84239 5.28433C8.98118 5.21908 9.12203 5.15815 9.26479 5.1016L9.48036 5.02008L9.71792 4.93962L9.7187 4.2813C9.7187 3.12402 10.5796 2.16851 11.6962 2.02004L11.85 2.00485L12 2ZM12 3.13208C11.4046 3.13208 10.9155 3.58397 10.8567 4.16374L10.8508 4.2813V5.80209L10.4262 5.9117C9.94988 6.0347 9.49331 6.21167 9.06254 6.4393L8.80722 6.58193L8.42952 6.80463L7.35447 5.72958C6.90571 5.28082 6.17834 5.28082 5.72958 5.72958C5.31074 6.14842 5.28281 6.80996 5.64581 7.26117L5.72958 7.35447L6.80463 8.42952L6.58193 8.80722C6.33417 9.22743 6.1364 9.67464 5.99195 10.1428L5.9117 10.4262L5.80209 10.8508H4.2813C3.64675 10.8508 3.13208 11.3653 3.13208 12C3.13208 12.5954 3.58397 13.0845 4.16374 13.1433L4.2813 13.1492H5.80209L5.9117 13.5738C6.0347 14.0501 6.21167 14.5067 6.4393 14.9375L6.58193 15.1928L6.80463 15.5705L5.72958 16.6455C5.28082 17.0943 5.28082 17.8217 5.72958 18.2704C6.14842 18.6893 6.80996 18.7172 7.26117 18.3542L7.35447 18.2704L8.42974 17.1951L8.80756 17.4183C9.22626 17.6655 9.67368 17.8633 10.1425 18.008L10.4262 18.0883L10.8508 18.1979V19.7187C10.8508 20.3532 11.3653 20.8679 12 20.8679C12.5954 20.8679 13.0845 20.416 13.1433 19.8363L13.1492 19.7187V18.1979L13.5738 18.0883C14.0501 17.9653 14.5067 17.7883 14.9375 17.5607L15.1928 17.4181L15.5705 17.1954L16.6455 18.2704C17.0943 18.7192 17.8217 18.7192 18.2704 18.2704C18.6893 17.8516 18.7172 17.19 18.3542 16.7388L18.2704 16.6455L17.1951 15.5703L17.4183 15.1924C17.6655 14.7737 17.8633 14.3263 18.008 13.8575L18.0883 13.5738L18.1979 13.1492H19.7187C20.3532 13.1492 20.8679 12.6347 20.8679 12C20.8679 11.4046 20.416 10.9155 19.8363 10.8567L19.7187 10.8508H18.1979L18.0883 10.4262C17.9653 9.94988 17.7883 9.49331 17.5607 9.06254L17.4181 8.80722L17.1954 8.42952L18.2704 7.35447C18.7192 6.90571 18.7192 6.17834 18.2704 5.72958C17.8516 5.31074 17.19 5.28281 16.7388 5.64581L16.6455 5.72958L15.5705 6.80463L15.1928 6.58193C14.7726 6.33417 14.3254 6.1364 13.8572 5.99195L13.5738 5.9117L13.1492 5.80209V4.2813C13.1492 3.64675 12.6347 3.13208 12 3.13208ZM12 8.86106C13.7336 8.86106 15.1389 10.2664 15.1389 12C15.1389 13.7336 13.7336 15.1389 12 15.1389C10.2664 15.1389 8.86106 13.7336 8.86106 12C8.86106 10.2664 10.2664 8.86106 12 8.86106ZM12 9.99314C10.8916 9.99314 9.99314 10.8916 9.99314 12C9.99314 13.1084 10.8916 14.0069 12 14.0069C13.1084 14.0069 14.0069 13.1084 14.0069 12C14.0069 10.8916 13.1084 9.99314 12 9.99314Z" fill="#52C142"/>
</svg>
