<svg width="32" height="32" viewBox="0 0 32 32" fill="none" xmlns="http://www.w3.org/2000/svg">
<path d="M17.1101 0.545898C17.1101 0.564715 17.1101 0.583531 17.1164 0.596075C16.9094 0.614891 16.7024 0.639979 16.508 0.545898C16.7087 0.545898 16.9094 0.545898 17.1101 0.545898ZM31.3916 16.7403C31.3728 18.1892 31.0842 19.5878 30.6076 20.9489C29.8487 23.1253 28.6821 25.0508 27.0701 26.7192C25.2387 28.607 23.0748 29.9242 20.5911 30.7207C19.437 31.0908 18.2516 31.3291 17.0223 31.3605C15.6487 31.3981 14.2814 31.4107 12.9267 31.1284C10.2171 30.5702 7.8024 29.4036 5.73889 27.5596C3.01055 25.1261 1.32337 22.0967 0.696166 18.484C0.620902 18.0386 0.639718 17.5871 0.564453 17.148C0.564453 16.3264 0.564453 15.5047 0.564453 14.6831C0.639718 14.2127 0.633446 13.7297 0.721254 13.2593C1.21675 10.5561 2.3269 8.14762 4.08307 6.03394C5.26222 4.61646 6.64834 3.44359 8.24771 2.53414C9.9788 1.54943 11.8353 0.890861 13.8173 0.621163C14.1309 0.577259 14.4508 0.602347 14.7644 0.545898C15.3477 0.545898 15.9247 0.545898 16.508 0.545898C16.6962 0.614891 16.8906 0.558443 17.085 0.577259C18.8851 0.564715 20.566 1.07275 22.1968 1.77522C23.5954 2.37734 24.8749 3.18643 26.0227 4.18369C27.4402 5.40674 28.6193 6.82422 29.5162 8.4675C30.4257 10.117 31.0278 11.8732 31.285 13.7423C31.4292 14.7333 31.4041 15.7368 31.3916 16.7403ZM24.0658 13.1715C24.0345 11.4718 22.7487 10.1798 21.0615 10.1672C17.6621 10.1421 14.2689 10.1421 10.8694 10.1672C9.19479 10.1798 7.90275 11.4655 7.86512 13.1402C7.82749 15.003 7.82749 16.8658 7.86512 18.7286C7.89648 20.422 9.18852 21.689 10.882 21.7203C12.5629 21.7517 14.2501 21.7266 15.931 21.7266C15.931 21.7266 15.931 21.7266 15.931 21.7329C17.5931 21.7329 19.2552 21.7329 20.9235 21.7329C20.9612 21.7329 21.0051 21.7329 21.0427 21.7266C22.7487 21.6639 24.0345 20.4095 24.0658 18.6972C24.0972 16.8595 24.1035 15.0155 24.0658 13.1715ZM13.8487 18.4212C15.2724 17.5933 16.6648 16.7842 18.1011 15.9563C16.6648 15.1221 15.2724 14.3068 13.8487 13.4789C13.8487 15.141 13.8487 16.7654 13.8487 18.4212Z" fill="#A8A8A8"/>
</svg>
